<?xml version="1.0" standalone="no"?>
<!DOCTYPE svg PUBLIC "-//W3C//DTD SVG 20010904//EN"
 "http://www.w3.org/TR/2001/REC-SVG-20010904/DTD/svg10.dtd">
<svg version="1.0" xmlns="http://www.w3.org/2000/svg"
 width="260.000000pt" height="260.000000pt" viewBox="0 0 260.000000 260.000000"
 preserveAspectRatio="xMidYMid meet">
<metadata>
Created by potrace 1.11, written by Peter Selinger 2001-2013
</metadata>
<g transform="translate(0.000000,260.000000) scale(0.100000,-0.100000)"
fill="#000000" stroke="none">
<path d="M0 1300 l0 -1300 1300 0 1300 0 0 1300 0 1300 -1300 0 -1300 0 0
-1300z m2192 -58 c104 -37 98 -28 98 -152 0 -66 -4 -110 -10 -110 -5 0 -31 16
-57 37 -158 120 -329 104 -409 -40 -27 -48 -29 -59 -29 -162 0 -94 3 -116 22
-150 47 -87 114 -125 220 -125 76 0 118 16 198 74 27 20 53 36 57 36 5 0 8
-49 8 -109 l0 -109 -63 -25 c-93 -37 -176 -51 -275 -44 -193 12 -326 104 -384
264 -26 71 -35 225 -19 304 34 164 140 279 300 325 69 20 270 12 343 -14z
m-734 -74 l-3 -83 -137 -3 -138 -3 0 -349 0 -350 -110 0 -110 0 0 350 0 349
-137 3 -138 3 -3 83 -3 82 391 0 391 0 -3 -82z"/>
</g>
</svg>
